<?xml version="1.0" encoding="UTF-8"?> <svg xmlns="http://www.w3.org/2000/svg" id="Layer_2" data-name="Layer 2" viewBox="0 0 396.85 97.75"><defs><style> .cls-1, .cls-2 { stroke-width: 0px; } .cls-2 { fill: #952125; } </style></defs><g id="Layer_2-2" data-name="Layer 2"><g id="Layer_1-2" data-name="Layer 1-2"><g><g><path class="cls-1" d="M153.33,27.28l-1.98-13.6c-.57-4.36-1.12-8.16-1.66-11.37h-17.99v53.48h12.15V20.52l5.12,35.27h8.62l4.84-36.1v36.1h12.18V2.3h-18.09l-3.2,24.96h.01Z"></path><path class="cls-1" d="M185.44,54.65c2.2,1.28,5.18,1.93,8.95,1.93,2.95,0,5.43-.47,7.43-1.41s3.62-2.33,4.87-4.16,1.98-3.64,2.22-5.38c.24-1.76.36-4.37.39-7.88h-11.89v5.22c0,2.27-.16,3.81-.47,4.62-.32.81-.93,1.22-1.83,1.22-.77,0-1.36-.39-1.76-1.17-.4-.78-.6-1.95-.6-3.52v-20.68c0-1.92.14-3.15.4-3.7.26-.55.78-.82,1.56-.82s1.29.31,1.58.95.42,1.82.42,3.59v5.06h12.59c0-4.12-.41-7.3-1.22-9.55s-2.45-4.11-4.92-5.58-5.44-2.22-8.92-2.22-6.47.75-8.92,2.23-4.05,3.18-4.79,5.07-1.12,4.71-1.12,8.42v12.45c0,4.27.46,7.57,1.37,9.89.91,2.33,2.48,4.13,4.67,5.42v.02Z"></path><path class="cls-1" d="M256.55,2.3h-18.09l-3.2,24.96-1.98-13.6c-.57-4.36-1.12-8.16-1.66-11.37h-17.99v53.48h12.15V20.51l5.12,35.27h8.62l4.84-36.1v36.1h12.18V2.3h.01Z"></path><path class="cls-1" d="M278.25,51.87v3.91h12.99v-22c0-7.25-.24-12.03-.7-14.36-.46-2.33-1.84-4.28-4.13-5.88-2.29-1.59-5.69-2.39-10.21-2.39-3.76,0-6.82.71-9.18,2.12-2.35,1.41-3.92,3.04-4.71,4.87-.78,1.84-1.17,4.46-1.17,7.84v2.94h12.51v-4.59c0-2.44.11-3.96.32-4.54s.78-.87,1.68-.87c.8,0,1.36.35,1.71,1.03.34.7.51,2.19.51,4.47,0,1.83-.15,3.04-.46,3.64s-2.65,1.76-7.03,3.47c-4.1,1.58-6.66,2.98-7.69,4.16s-1.56,3.42-1.56,6.7v3.6c0,4.42.97,7.3,2.93,8.6,1.94,1.31,4.08,1.97,6.42,1.97,1.78,0,3.32-.39,4.61-1.17,1.29-.78,2.34-1.95,3.15-3.52h.01ZM274.11,47.83c-.3-.66-.45-2.13-.45-4.4,0-1.98.17-3.5.51-4.56s1.58-2.37,3.71-3.93v9.01c0,2.2-.12,3.56-.39,4.08-.25.52-.8.77-1.63.77-.88,0-1.47-.34-1.77-1h.01Z"></path><path class="cls-1" d="M309.17,24.5c0-2.23.14-3.71.42-4.46s.83-1.12,1.66-1.12c.88,0,1.44.36,1.71,1.1.25.72.37,2.37.37,4.92v30.85h13.35v-30.22c0-4.12-.19-6.95-.55-8.5s-1.37-2.93-3-4.11-3.62-1.78-5.96-1.78c-1.52,0-2.95.26-4.27.8-1.33.54-2.58,1.32-3.71,2.39V2.34h-13.35v53.48h13.35v-31.31Z"></path><path class="cls-1" d="M358.31,51.9c1.29-1.59,2.14-3.31,2.54-5.15s.6-4.73.6-8.67v-10.73c0-3.1-.21-5.42-.65-6.94-.42-1.52-1.23-2.99-2.39-4.42-1.17-1.43-2.83-2.59-4.97-3.49s-4.72-1.34-7.71-1.34c-3.56,0-6.5.7-8.79,2.08s-3.87,3.22-4.76,5.52c-.88,2.29-1.32,5.47-1.32,9.55v11.23c0,3.72.24,6.51.72,8.37s1.29,3.45,2.43,4.76,2.73,2.29,4.77,2.94,4.54.97,7.5.97c2.64,0,4.98-.37,7.02-1.15s3.71-1.94,5.01-3.54h0ZM348.12,44.25c0,1.89-.12,3.13-.37,3.7-.25.57-.77.86-1.57.86s-1.28-.31-1.56-.95c-.26-.62-.4-1.98-.4-4.05v-19.79c0-2.24.14-3.66.4-4.25.26-.59.8-.87,1.58-.87s1.31.29,1.56.87.36,1.99.36,4.25v20.21h0Z"></path><path class="cls-1" d="M379.19,26.16c0-3.3.12-5.33.36-6.09.25-.76.83-1.15,1.78-1.15s1.46.32,1.66,1c.2.66.3,2.5.3,5.52v30.36h13.35v-30.72c0-3.83-.21-6.56-.62-8.21s-1.36-3-2.8-4.08c-1.46-1.08-3.32-1.62-5.62-1.62-1.83,0-3.44.4-4.84,1.21s-2.58,2.02-3.55,3.62l.24-4.03h-13.57v43.83h13.35v-29.62h-.02Z"></path><polygon class="cls-1" points="132.09 67.87 137.25 67.87 137.25 94.75 146 94.75 146 67.87 151.19 67.87 151.19 61.15 132.09 61.15 132.09 67.87"></polygon><path class="cls-1" d="M171.72,75.59c.65-.9.97-2.65.97-5.28,0-2.86-.46-4.96-1.38-6.26s-2.12-2.12-3.57-2.44-4.26-.47-8.38-.47h-6.19v33.62h8.74v-15.15c1.21,0,1.94.21,2.23.65.29.42.42,1.54.42,3.34v11.17h8.12v-8.87c0-2.71-.07-4.37-.21-4.97-.15-.6-.52-1.26-1.11-1.98s-1.76-1.29-3.49-1.72c1.91-.17,3.19-.72,3.83-1.62h.01ZM164.57,71.33c0,1.48-.2,2.35-.6,2.63-.4.27-1.08.41-2.07.41v-7.47c1.01,0,1.71.16,2.09.5.39.34.57,1.03.57,2.09,0,0,0,1.84,0,1.84Z"></path><path class="cls-1" d="M187.2,85.91c0,1.68-.07,2.74-.24,3.19s-.52.67-1.07.67c-.49,0-.81-.2-.97-.61-.16-.41-.24-1.34-.24-2.81v-25.2h-8.74v19.88c0,3.8.07,6.28.21,7.46s.59,2.3,1.34,3.37,1.91,1.93,3.45,2.59c1.53.66,3.31,1,5.32,1,1.82,0,3.39-.29,4.72-.85,1.33-.56,2.42-1.38,3.22-2.47.82-1.08,1.31-2.14,1.47-3.18.16-1.03.25-2.81.25-5.37v-22.46h-8.74v24.77h.01Z"></path><path class="cls-1" d="M215.65,61.93c-1.67-1-3.8-1.49-6.38-1.49-1.89,0-3.57.32-5.03.97s-2.6,1.53-3.42,2.65-1.32,2.29-1.48,3.5-.25,3.03-.25,5.45v9.82c0,3.3.27,5.76.81,7.4s1.64,2.93,3.3,3.85c1.66.92,3.77,1.39,6.34,1.39s4.53-.55,6.21-1.64,2.76-2.37,3.26-3.82c.49-1.46.73-3.92.73-7.4v-1.31h-8.74v4.22c0,1.84-.1,3.01-.3,3.51s-.62.75-1.28.75-1.11-.25-1.31-.75-.29-1.57-.29-3.2v-15.61c0-1.71.1-2.81.29-3.32.2-.51.65-.77,1.37-.77.64,0,1.05.21,1.23.64.19.42.29,1.48.29,3.18v5.84h8.74v-3.19c0-3.14-.26-5.45-.78-6.94s-1.63-2.73-3.3-3.72h-.01Z"></path><polygon class="cls-1" points="243.7 61.15 235.51 61.15 231.61 74.2 231.61 61.15 222.87 61.15 222.87 94.75 231.61 94.75 231.61 80.35 235.15 94.75 244.19 94.75 238.69 76.31 243.7 61.15"></polygon><path class="cls-1" d="M269.5,61.93c-1.67-1-3.8-1.49-6.38-1.49-1.89,0-3.57.32-5.03.97s-2.6,1.53-3.42,2.65-1.32,2.29-1.48,3.5-.25,3.03-.25,5.45v9.82c0,3.3.27,5.76.81,7.4s1.64,2.93,3.3,3.85c1.66.92,3.77,1.39,6.34,1.39s4.53-.55,6.21-1.64,2.76-2.37,3.26-3.82c.49-1.46.73-3.92.73-7.4v-1.31h-8.74v4.22c0,1.84-.1,3.01-.3,3.51s-.62.75-1.28.75-1.11-.25-1.31-.75-.29-1.57-.29-3.2v-15.61c0-1.71.1-2.81.29-3.32.2-.51.65-.77,1.37-.77.64,0,1.05.21,1.23.64.19.42.29,1.48.29,3.18v5.84h8.74v-3.19c0-3.14-.26-5.45-.78-6.94s-1.63-2.73-3.3-3.72h-.01Z"></path><polygon class="cls-1" points="285.46 80.63 290.93 80.63 290.93 74.25 285.46 74.25 285.46 67.87 291.3 67.87 291.3 61.15 276.72 61.15 276.72 94.75 291.87 94.75 291.87 88.03 285.46 88.03 285.46 80.63"></polygon><polygon class="cls-1" points="306.6 76.28 301.7 61.15 294.39 61.15 294.39 94.75 301.7 94.75 301.7 79.48 306.24 94.75 313.9 94.75 313.9 61.15 306.6 61.15 306.6 76.28"></polygon><polygon class="cls-1" points="315.92 67.87 321.08 67.87 321.08 94.75 329.83 94.75 329.83 67.87 335.02 67.87 335.02 61.15 315.92 61.15 315.92 67.87"></polygon><polygon class="cls-1" points="345.75 80.63 351.22 80.63 351.22 74.25 345.75 74.25 345.75 67.87 351.59 67.87 351.59 61.15 337.01 61.15 337.01 94.75 352.16 94.75 352.16 88.03 345.75 88.03 345.75 80.63"></polygon><path class="cls-1" d="M373.22,75.59c.65-.9.97-2.65.97-5.28,0-2.86-.46-4.96-1.38-6.26s-2.12-2.12-3.57-2.44c-1.46-.32-4.26-.47-8.38-.47h-6.19v33.62h8.74v-15.15c1.21,0,1.94.21,2.23.65.29.42.42,1.54.42,3.34v11.17h8.12v-8.87c0-2.71-.07-4.37-.21-4.97-.15-.6-.52-1.26-1.11-1.98s-1.76-1.29-3.49-1.72c1.91-.17,3.19-.72,3.83-1.62h.01ZM366.08,71.33c0,1.48-.2,2.35-.6,2.63s-1.08.41-2.07.41v-7.47c1.01,0,1.71.16,2.09.5.39.34.57,1.03.57,2.09v1.84h0Z"></path><path class="cls-1" d="M395.31,79c-1.01-1.48-3.46-3.37-7.35-5.69-1.36-.8-2.18-1.48-2.47-2.05-.3-.57-.46-1.41-.46-2.54,0-.87.14-1.52.41-1.95s.67-.65,1.2-.65c.49,0,.83.16,1.03.47s.31,1.06.31,2.22v2.49h8.12v-1.33c0-2.68-.26-4.57-.77-5.68s-1.58-2.04-3.18-2.78c-1.59-.73-3.54-1.1-5.8-1.1-2.08,0-3.85.34-5.32,1.01s-2.53,1.61-3.19,2.79c-.66,1.2-.98,3.08-.98,5.65,0,1.78.24,3.25.7,4.41.46,1.15,1.05,2.05,1.76,2.7s2.14,1.69,4.32,3.14c2.18,1.42,3.54,2.44,4.08,3.05.54.61.81,1.91.81,3.88,0,.9-.14,1.58-.42,2.03-.29.46-.72.68-1.29.68s-.98-.17-1.22-.54-.34-1.17-.34-2.43v-4.1h-8.12v2.2c0,2.52.26,4.46.77,5.84s1.59,2.5,3.25,3.39,3.65,1.33,5.99,1.33c2.13,0,4-.39,5.6-1.16s2.69-1.72,3.25-2.85c.56-1.13.85-2.9.85-5.29,0-3.3-.51-5.68-1.52-7.16h-.02Z"></path><path class="cls-1" d="M97.47,0H29.73l33.87,75.43L97.47,0ZM36.36,4.8h54.22l-27.11,60.38L36.36,4.8Z"></path><path class="cls-1" d="M63.48,88.26L33.87,22.32,0,97.75h126.95L93.08,22.32l-29.61,65.94h0ZM6.88,92.95l27.11-60.38,27.11,60.38H6.88ZM120.32,92.95h-54.22l27.11-60.38,27.11,60.38Z"></path></g><g><polygon class="cls-2" points="43.23 9.18 63.53 54.39 83.83 9.18 43.23 9.18"></polygon><polygon class="cls-2" points="93.15 43.36 72.85 88.57 113.45 88.57 93.15 43.36"></polygon><polygon class="cls-2" points="33.94 43.36 13.64 88.57 54.24 88.57 33.94 43.36"></polygon></g></g></g></g></svg> 